
<svg width="48px" height="56px" viewBox="0 0 352 512" version="1.1" xmlns="http://www.w3.org/2000/svg" xmlns:xlink="http://www.w3.org/1999/xlink">
    <defs>
        <linearGradient x1="-6.16521421%" y1="14.7934649%" x2="100%" y2="91.4270586%" id="linearGradient-1">
            <stop stop-color="#FAA461" offset="0%"></stop>
            <stop stop-color="#F75C1C" offset="100%"></stop>
        </linearGradient>
    </defs>
    <g id="ONBOARDING-FULL" stroke="none" stroke-width="1" fill="none" fill-rule="evenodd">
        <g id="000-B" transform="translate(-287.000000, -462.000000)" fill="url(#linearGradient-1)">
            <g id="lightbulb-(1)" transform="translate(287.000000, 462.000000)">
                <path d="M96.06 454.35c.01 6.29 1.87 12.45 5.36 17.69l17.09 25.69a31.99 31.99 0 0 0 26.64 14.28h61.71a31.99 31.99 0 0 0 26.64-14.28l17.09-25.69a31.989 31.989 0 0 0 5.36-17.69l.04-38.35H96.01l.05 38.35zM0 176c0 44.37 16.45 84.85 43.56 115.78 16.52 18.85 42.36 58.23 52.21 91.45.04.26.07.52.11.78h160.24c.04-.26.07-.51.11-.78 9.85-33.22 35.69-72.6 52.21-91.45C335.55 260.85 352 220.37 352 176 352 78.61 272.91-.3 175.45 0 73.44.31 0 82.97 0 176zm176-80c-44.11 0-80 35.89-80 80 0 8.84-7.16 16-16 16s-16-7.16-16-16c0-61.76 50.24-112 112-112 8.84 0 16 7.16 16 16s-7.16 16-16 16z"/>
            </g>
        </g>
    </g>
</svg>